<svg width="24" height="26" viewBox="0 0 24 26" fill="none" xmlns="http://www.w3.org/2000/svg">
<g filter="url(#filter0_d_2203_8006)">
<path fill-rule="evenodd" clip-rule="evenodd" d="M8.17053 12.4494C8.28055 12.7766 8.10451 13.131 7.77734 13.241C6.71792 13.5973 6.15489 14.4866 5.85373 15.391C5.73414 15.7501 5.66189 16.0958 5.61848 16.3817C5.90434 16.3383 6.25006 16.266 6.60917 16.1464C7.51355 15.8453 8.4029 15.2823 8.75916 14.2228C8.86918 13.8957 9.2236 13.7196 9.55078 13.8296C9.87795 13.9397 10.054 14.2941 9.94396 14.6213C9.4096 16.2103 8.08801 16.9715 7.00411 17.3324C6.45655 17.5148 5.94395 17.6048 5.5698 17.6497C5.38182 17.6722 5.22641 17.6836 5.116 17.6894C5.06074 17.6924 5.01658 17.6939 4.98505 17.6946C4.96928 17.695 4.95666 17.6952 4.94737 17.6954L4.93596 17.6955L4.93217 17.6955L4.93077 17.6955L4.93019 17.6955C4.92993 17.6955 4.92969 17.6955 4.92969 17.0705C4.30469 17.0705 4.30469 17.0702 4.30469 17.07L4.30469 17.0694L4.30469 17.068L4.30471 17.0642L4.30481 17.0528C4.30493 17.0435 4.30514 17.0309 4.30553 17.0151C4.30631 16.9836 4.30782 16.9394 4.31072 16.8842C4.31653 16.7738 4.32797 16.6184 4.35052 16.4304C4.3954 16.0562 4.48542 15.5436 4.66776 14.9961C5.0287 13.9122 5.78989 12.5906 7.37891 12.0562C7.70608 11.9462 8.0605 12.1222 8.17053 12.4494ZM4.92969 17.0705H4.30469C4.30469 17.4157 4.58451 17.6955 4.92969 17.6955V17.0705Z" fill="#A259FF"/>
<path fill-rule="evenodd" clip-rule="evenodd" d="M18.5462 3.45406C17.8208 3.34943 16.0351 3.31002 14.2076 5.13753L9.34482 10.0003L12 12.6555L16.8627 7.79271C18.6903 5.9652 18.6508 4.17951 18.5462 3.45406ZM18.7275 2.21727C17.7298 2.07282 15.5058 2.07157 13.3237 4.25365L8.019 9.55834C7.90179 9.67555 7.83594 9.83452 7.83594 10.0003C7.83594 10.166 7.90179 10.325 8.019 10.4422L11.5581 13.9813C11.8021 14.2254 12.1979 14.2254 12.4419 13.9813L17.7466 8.67659C19.9287 6.49452 19.9275 4.27052 19.783 3.27282C19.7465 3.0058 19.6235 2.75803 19.4329 2.5674C19.2422 2.37678 18.9945 2.25382 18.7275 2.21727Z" fill="#A259FF"/>
<path fill-rule="evenodd" clip-rule="evenodd" d="M16.422 8.49219C16.7672 8.49219 17.047 8.77201 17.047 9.11719V14.1641L17.0469 14.173C17.0423 14.5013 16.9086 14.8145 16.675 15.045L14.1527 17.575C13.9926 17.7349 13.7921 17.8484 13.5725 17.9033C13.353 17.9582 13.1227 17.9524 12.9061 17.8867C12.6896 17.8209 12.495 17.6976 12.343 17.5299C12.1912 17.3623 12.0877 17.1567 12.0435 16.9349C12.0434 16.9347 12.0435 16.9351 12.0435 16.9349L11.3873 13.6619C11.3195 13.3235 11.5388 12.9941 11.8773 12.9263C12.2157 12.8584 12.5451 13.0778 12.6129 13.4162L13.2694 16.6906L15.797 14.1552V9.11719C15.797 8.77201 16.0768 8.49219 16.422 8.49219Z" fill="#A259FF"/>
<path fill-rule="evenodd" clip-rule="evenodd" d="M7.82625 4.95319L7.83515 4.95312H12.882C13.2272 4.95312 13.507 5.23295 13.507 5.57812C13.507 5.9233 13.2272 6.20312 12.882 6.20312H7.84399L7.83894 6.20828L7.83891 6.20825L5.30859 8.73075L5.30956 8.73094L8.583 9.38719C8.92144 9.45504 9.1408 9.78441 9.07295 10.1229C9.0051 10.4613 8.67574 10.6807 8.33729 10.6128L5.06483 9.95675C5.06464 9.95671 5.06445 9.95668 5.06426 9.95664C4.84252 9.91244 4.6369 9.80892 4.46933 9.65711C4.30162 9.50516 4.1783 9.31054 4.11254 9.094C4.04677 8.87746 4.04103 8.64712 4.09592 8.42757C4.15081 8.20802 4.26427 8.00749 4.4242 7.84738L4.42514 7.84644L4.42514 7.84644L6.95424 5.32514C7.18475 5.09151 7.49796 4.95786 7.82625 4.95319Z" fill="#A259FF"/>
</g>
<defs>
<filter id="filter0_d_2203_8006" x="-2" y="0" width="28" height="28" filterUnits="userSpaceOnUse" color-interpolation-filters="sRGB">
<feFlood flood-opacity="0" result="BackgroundImageFix"/>
<feColorMatrix in="SourceAlpha" type="matrix" values="0 0 0 0 0 0 0 0 0 0 0 0 0 0 0 0 0 0 127 0" result="hardAlpha"/>
<feOffset dy="4"/>
<feGaussianBlur stdDeviation="2"/>
<feComposite in2="hardAlpha" operator="out"/>
<feColorMatrix type="matrix" values="0 0 0 0 0 0 0 0 0 0 0 0 0 0 0 0 0 0 0.25 0"/>
<feBlend mode="normal" in2="BackgroundImageFix" result="effect1_dropShadow_2203_8006"/>
<feBlend mode="normal" in="SourceGraphic" in2="effect1_dropShadow_2203_8006" result="shape"/>
</filter>
</defs>
</svg>
